<?xml version="1.0" standalone="no"?><!DOCTYPE svg PUBLIC "-//W3C//DTD SVG 1.1//EN" "http://www.w3.org/Graphics/SVG/1.1/DTD/svg11.dtd"><svg class="icon" height="512" viewBox="0 0 1025 1024" version="1.1" xmlns="http://www.w3.org/2000/svg"><path d="M227.784 286.6624l-22.0528-17.2032C205.7328 278.968 215.592 286.6624 227.784 286.6624zM219.528 160.1392l-25.8192-30.9648C193.7072 146.2928 205.256 160.1392 219.528 160.1392zM220.3888 176.1872c23.2416 0 42.08-22.5984 42.08-50.4688 0-27.8656-18.8384-50.464-42.08-50.464s-42.08 22.5984-42.08 50.464C178.3088 153.5888 197.1472 176.1872 220.3888 176.1872zM220.3888 83.28c19.5456 0 35.3872 18.9968 35.3872 42.4368 0 23.44-15.8416 42.4368-35.3872 42.4368-19.5424 0-35.3872-18.9984-35.3872-42.4368C185.0016 102.2768 200.8464 83.28 220.3888 83.28zM344.056 262.696c35.5744 0 64.4096-34.5808 64.4096-77.2416 0-42.6576-28.84-77.2416-64.4096-77.2416s-64.4096 34.584-64.4096 77.2416C279.6448 228.1152 308.4848 262.696 344.056 262.696zM344.056 120.5008c29.9136 0 54.1616 29.08 54.1616 64.9536 0 35.872-24.248 64.9504-54.1616 64.9504-29.9152 0-54.1632-29.0784-54.1632-64.9504C289.8928 149.5792 314.1408 120.5008 344.056 120.5008zM513.6352 245.0176l-21.1152-16.4688C492.5216 237.6512 501.9664 245.0176 513.6352 245.0176zM356.064 238.8912l-50.1584-39.1328C305.9056 221.3904 328.3408 238.8912 356.064 238.8912zM784.3168 123.0768 762.2592 105.872C762.2592 115.384 772.1248 123.0768 784.3168 123.0768zM780.768 139.0112c18.4976 0 33.4896-17.9776 33.4896-40.1616 0-22.1888-14.992-40.1664-33.4896-40.1664-18.5024 0-33.496 17.9776-33.496 40.1664C747.2736 121.0336 762.2656 139.0112 780.768 139.0112zM780.768 65.0704c15.552 0 28.1584 15.1248 28.1584 33.7808 0 18.6512-12.6064 33.7744-28.1584 33.7744-15.5584 0-28.168-15.1232-28.168-33.7744C752.6 80.1952 765.2112 65.0704 780.768 65.0704zM771.2704 330.5504c8.3392 20.0832 12.4176 40.496 12.4528 57.9904 13.016-12.0832 15.8048-40.5632 7.864-71.4016l-20.7888 12.4064C770.9456 329.8976 771.1232 330.1984 771.2704 330.5504zM996.8992 455.1888c-0.2512-0.5792-0.3456-0.7744-0.3072-0.672C996.7936 454.9488 996.8992 455.1888 996.8992 455.1888zM771.2272 317.5072l12.928-7.7056 53.8576 18.456 29.8944-17.8528 13.488 32.4816 13.5552-8.0928-13.488-32.4768 18.944-7.608-70.8464-28.5936-65.0752 35.1552L771.2272 317.5072zM830.8272 342.688l10.1152 24.352 33.6848-20.1088-10.112-24.3584L830.8272 342.688zM751.2352 243.6496l-25.6048-19.9728C725.632 234.7152 737.0848 243.6496 751.2352 243.6496zM478.888 224.5888c0 19.9072 13.456 36.0432 30.0624 36.0432 16.6 0 30.056-16.136 30.056-36.0432s-13.4544-36.0432-30.056-36.0432C492.3424 188.544 478.888 204.68 478.888 224.5888zM508.9488 194.2768c13.9584 0 25.2752 13.5712 25.2752 30.3104 0 16.7392-11.3168 30.3104-25.2752 30.3104-13.9648 0-25.2816-13.5712-25.2816-30.3104C483.6672 207.8496 494.9856 194.2768 508.9488 194.2768zM462.6544 125.4416 430.176 100.1008C430.176 114.1088 444.7008 125.4416 462.6544 125.4416zM745.0832 260.6944c20.8992 0 37.8384-20.3152 37.8384-45.3776 0-25.056-16.9408-45.3712-37.8384-45.3712-20.8944 0-37.8336 20.3168-37.8336 45.3712C707.248 240.3792 724.1888 260.6944 745.0832 260.6944zM745.0832 177.1616c17.5696 0 31.8176 17.0848 31.8176 38.1552 0 21.0768-14.2464 38.1552-31.8176 38.1552s-31.8176-17.0784-31.8176-38.1552C713.2656 194.2464 727.512 177.1616 745.0832 177.1616zM458.2768 147.3472c26.56 0 48.0928-25.8224 48.0928-57.6736S484.8368 32 458.2768 32c-26.56 0-48.0928 25.8224-48.0928 57.6736S431.7168 147.3472 458.2768 147.3472zM458.2768 41.1776c22.3344 0 40.44 21.712 40.44 48.496 0 26.7856-18.104 48.496-40.44 48.496-22.3344 0-40.44-21.7104-40.44-48.496C417.8368 62.8896 435.9424 41.1776 458.2768 41.1776zM746.2672 320.2032c1.856 4.488 7.4128 5.7072 12.4016 2.728l3.6592-2.1872-6.7408-16.2368-3.664 2.1872C746.9328 309.6688 744.4016 315.7216 746.2672 320.2032zM619.7328 246.2176c41.7392 0 75.5744-40.5744 75.5744-90.6304 0-50.0544-33.8352-90.6288-75.5744-90.6288-41.7408 0-75.5744 40.5744-75.5744 90.6288C544.1584 205.6432 577.992 246.2176 619.7328 246.2176zM619.7328 79.3792c35.0992 0 63.5504 34.1184 63.5504 76.208s-28.4512 76.2112-63.5504 76.2112-63.552-34.12-63.552-76.2112S584.6336 79.3792 619.7328 79.3792zM629.8592 214.0848l-52.9632-41.3168C576.8976 195.6032 600.5904 214.0848 629.8592 214.0848zM655.2256 507.9392l-17.7488 28.7696c-2.4496 3.9728-1.752 9.5744 1.5696 12.5088 3.3184 2.936 7.9904 2.1072 10.4416-1.8736l17.7424-28.7744c2.4544-3.9664 1.7536-9.5744-1.5616-12.5104C662.3536 503.1248 657.6784 503.9664 655.2256 507.9392zM688.2896 453.5024l-17.7488 28.7712c-2.4528 3.9728-1.752 9.5728 1.5712 12.5088 3.312 2.936 7.984 2.0928 10.4416-1.8736l17.7424-28.7696c2.4528-3.9792 1.752-9.5728-1.5568-12.5152C695.4112 448.6944 690.7424 449.5312 688.2896 453.5024zM705.1776 440.3472c3.3056 2.9344 7.9936 2.0928 10.4352-1.8736l17.7536-28.7696c2.448-3.9664 1.7456-9.5728-1.5664-12.5072-3.3168-2.936-7.9936-2.1008-10.44 1.8736l-17.7552 28.7696C701.1584 431.8096 701.8544 437.4112 705.1776 440.3472zM681.5792 309.6432l-27.3776 14.2816c-3.7776 1.9728-5.5088 7.248-3.8624 11.7808 1.64 4.5248 6.0432 6.5984 9.8288 4.6192l27.3824-14.2736c3.7728-1.976 5.5088-7.2496 3.8624-11.776C689.7632 309.744 685.368 307.6688 681.5792 309.6432zM704.3552 353.0608l-23.3584 22.2832c-3.2288 3.08-3.7584 8.7072-1.184 12.5712 2.568 3.8592 7.2608 4.4944 10.4896 1.4208l23.3632-22.2832c3.2288-3.0736 3.7648-8.7008 1.184-12.5664C712.2864 350.6208 707.5824 349.9808 704.3552 353.0608zM828.1376 554.6448l-43.8064-136.904 43.8064 136.896-67.848-212.0368-3.3968-10.6048-0.016 0c-18.4448-0.4448-18.4448-15.7456-16.2496-28.5888-24.1216-13.7408-47.3536-35.8304-61.0288-35.8304L330.3328 267.576c-5.76 0-13.7856 2.0496-22.5808 6.0848-20.1744 9.2528-44.4064 28.9536-54.696 58.3328l-8.5984 26.8544-5.864 18.3232c10.6768-1.0912 21.5664 1.5856 32.2432 9.7456 5.2352-16.856 9.4896-31.1088 11.7648-39.9616 3.9952-13.2128 26.7072-43.5296 57.392-41.28l329.944 0c30.6848-2.256 53.4016 28.0672 57.392 41.28 9.896 38.3888 56.8768 178.1872 60.232 192.3504 3.9632 16.808-9.0896 15.3312-9.0896 15.3312L345.1632 554.6368c-2.0112 44.4368-33.4656 69.3936-92.5744 71.616-55.6928 13.0032-73.2016 56.1504-106.9936 115.1632 3.0448 74.3232 18.0928 102.7184 35.752 113.288l15.6272 10.3216 0 89.36c0 29.0064 5.8848 37.616 29.464 37.616l52.8944 0c23.5824 0 29.464-8.6096 29.464-37.616l0-89.36 392.3472 0 0 89.36c0 29.0064 5.8976 37.616 29.4528 37.616l52.9184 0c23.5664 0 29.4592-8.6096 29.4592-37.616l0-89.36 15.6256-10.3216c19.8032-11.848 36.3136-46.096 36.3136-142.3456 0-98.7216-6.888-111.7504-13.208-126.384C845.3984 571.3328 828.1376 554.6448 828.1376 554.6448zM284.3264 758.744c-25.3376 0-45.9536-24.7008-45.9536-55.0304 0-30.328 20.616-55.0144 45.9536-55.0144 25.3232 0 45.9392 24.6864 45.9392 55.0144C330.2656 734.0432 309.648 758.744 284.3264 758.744zM727.3504 758.744c-25.3216 0-45.9376-24.7008-45.9376-55.0304 0-30.328 20.616-55.0144 45.9376-55.0144 25.3328 0 45.9552 24.6864 45.9552 55.0144C773.304 734.0432 752.6832 758.744 727.3504 758.744zM625.5296 440.12c2.5648 3.8592 7.2592 4.5008 10.4896 1.4272l23.3568-22.2912c3.2336-3.08 3.768-8.7056 1.1904-12.5712-2.5648-3.8576-7.2608-4.5008-10.4896-1.4208l-23.3584 22.2832C623.4912 430.6288 622.9568 436.2544 625.5296 440.12zM222.1072 229.736c-16.6 0-30.0544 16.1424-30.0544 36.0496 0 19.9072 13.4544 36.0432 30.0544 36.0432s30.0576-16.136 30.0576-36.0432C252.1648 245.8784 238.7072 229.736 222.1072 229.736zM222.1072 296.0976c-13.9584 0-25.2752-13.5712-25.2752-30.3104 0-16.7392 11.3168-30.3104 25.2752-30.3104 13.9584 0 25.2752 13.5712 25.2752 30.3104C247.3824 282.5264 236.0656 296.0976 222.1072 296.0976zM619.9728 343.8384l-27.3824 14.2816c-3.7792 1.9744-5.5024 7.2416-3.864 11.7728 1.6528 4.5328 6.0496 6.6 9.8336 4.6336l27.3824-14.2816c3.7744-1.976 5.504-7.2496 3.8528-11.7808C628.1568 343.9392 623.7488 341.872 619.9728 343.8384zM1020.6592 511.68c0 0-23.6032-55.7808-24.0688-57.1568-1.4272-3.0448-7.4496-15.6784-11.8368-21.984-29.0016-41.6496-63.3024-88.7808-82.8432-77.3728l-39.4384 26.224c-3.9728 2.3456-5.9808 7.1232-4.4816 10.6864 0 0 7.5376 17.7568 12.2816 29.048 8.2144 19.5232 4.1408 43.8992 2.3424 54.6928-1.712 10.2144-2.1536 19.6-1.6032 27.576-0.6448 14.1808 4.2192 36.4208 14.0736 59.8352 13.8432 32.9264 27.6768 51.3312 36.2784 54.3296 8.5904 2.984 19.5152 1.6464 26.3616-2.3824l58.7648-34.6336C1024.7488 569.7728 1027.3056 527.4832 1020.6592 511.68zM172.2128 415.3408l-33.6096-26.2192C138.6016 403.6176 153.6352 415.3408 172.2128 415.3408zM163.3312 437.1472c2.0576-2.9216 4.2736-5.9616 6.6352-9.0576-23.2496-0.3968-41.9952-23.1008-41.9952-51.0784 0-28.2192 19.0752-51.0912 42.6096-51.0912 23.5296 0 42.6048 22.872 42.6048 51.0912 0 3.3744-0.28 6.6704-0.8 9.864 2.8464-1.7632 5.7376-3.3392 8.6672-4.6896 0.12-1.7072 0.1968-3.4304 0.1968-5.1744 0-33.5552-22.688-60.7616-50.6672-60.7616-27.9856 0-50.672 27.2048-50.672 60.7616C119.9104 407.6176 138.7824 432.928 163.3312 437.1472zM108.824 646.7296c-2.7216 0.096-4.8592 2.8256-4.7744 6.0864 0.0816 3.2704 2.3536 5.832 5.0752 5.7312 2.7232-0.0976 4.8624-2.824 4.7792-6.088C113.8224 649.1904 111.544 646.6336 108.824 646.7296zM113.6384 531.6288c-4.6672 0.176-8.3296 4.8432-8.1904 10.44 0.1408 5.5936 4.0432 9.992 8.7072 9.8176 4.664-0.168 8.3296-4.8384 8.1888-10.4384C122.2032 535.8528 118.3024 531.4544 113.6384 531.6288zM198.3184 646.8256c38.96-36.8288 82.3616-37.8 82.3616-37.8 84.1312-0.584 53.9008-93.3744 31.544-145.6816-23.7872-55.64-76.3296-111.6304-127.1072-37.6176 0 0-20.9072 37.0928-56.912 62.4704-34.3952 24.2416-79.7184 30.6128-79.7184 30.6128-66.4992 20.8576-52.8672 121.0528-28.0336 171.7232 24.8352 50.6736 82.2032 89.8512 124.896 34.2896C145.3456 724.8224 169.0128 674.5328 198.3184 646.8256zM223.504 612.0992c-2.7216 0.0976-4.9952-2.464-5.0752-5.728-0.088-3.2624 2.0528-5.9936 4.7744-6.0912 2.7184-0.0944 4.9952 2.4704 5.0784 5.7344C228.3632 609.2752 226.2256 612.0016 223.504 612.0992zM274.0672 605.1744c-1.944 0.0688-3.5712-1.7632-3.6304-4.0944-0.0624-2.3296 1.4672-4.28 3.4112-4.3504 1.9408-0.0672 3.5664 1.7632 3.6288 4.0944C277.5328 603.1632 276.0048 605.104 274.0672 605.1744zM326.192 577.0656c0.1088 4.1936-2.6384 7.7024-6.136 7.8304-3.5008 0.1312-6.4256-3.168-6.5328-7.3648-0.1072-4.2 2.6448-7.6992 6.1472-7.8304C323.1632 569.576 326.0864 572.8704 326.192 577.0656zM318.0752 507.2256c1.9408-0.0704 3.5664 1.7616 3.6272 4.0944 0.0624 2.3312-1.4704 4.2784-3.416 4.3488-1.944 0.072-3.568-1.76-3.6272-4.0928C314.6 509.2464 316.1232 507.3008 318.0752 507.2256zM8.9616 626.7312c-2.3328 0.0848-4.2848-2.1104-4.3552-4.9136-0.0704-2.792 1.7632-5.1312 4.0976-5.2144 2.3296-0.088 4.2816 2.1104 4.352 4.9088C13.1264 624.3104 11.2912 626.6464 8.9616 626.7312zM24.7792 666.7088c-3.5024 0.1312-6.4256-3.1664-6.5328-7.3568-0.1072-4.2032 2.6416-7.7056 6.1424-7.8352 3.4992-0.1264 6.4208 3.1664 6.5312 7.3664C31.0272 663.08 28.2784 666.5808 24.7792 666.7088zM32.7232 701.912c-1.9456 0.0736-3.5696-1.7616-3.632-4.0896-0.0576-2.336 1.472-4.2816 3.4144-4.352 1.944-0.0704 3.568 1.7616 3.6288 4.096C36.1936 699.8944 34.6656 701.8432 32.7232 701.912zM77.1024 729.0176c-5.056 0.1856-9.28-4.5824-9.4336-10.6432-0.1552-6.0592 3.8176-11.1232 8.8704-11.3072 5.0544-0.1872 9.2784 4.5776 9.4336 10.6384C86.128 723.7664 82.1552 728.8304 77.1024 729.0176zM111.152 737.9104c-2.7232 0.096-5.0064-2.8464-5.1008-6.5792-0.0944-3.7264 2.0352-6.8336 4.7584-6.9328 2.7216-0.1008 5.0032 2.84 5.1008 6.576C116.0032 734.7008 113.8752 737.808 111.152 737.9104zM140.6928 708.0896c-3.1104 0.1184-5.7104-2.8112-5.808-6.5424-0.096-3.728 2.352-6.8496 5.4592-6.96 3.1136-0.1136 5.712 2.8112 5.808 6.544C146.2464 704.8592 143.8 707.9776 140.6928 708.0896zM180.416 635.6512c-1.944 0.0736-3.568-1.7616-3.6272-4.0944-0.064-2.3296 1.4704-4.2768 3.4096-4.3456 1.9472-0.0784 3.5712 1.7584 3.6288 4.0912C183.8896 633.6336 182.36 635.5808 180.416 635.6512zM147.1504 660.8944c-53.2464 55.7024-97.3712 30.7968-116.4624-11.3008-18.6992-41.2112-37.7568-106.328 16.5648-123.9808 0 0 66.4976-11.1008 93.384-40.6112 37.2576-34.6672 51.9584-62.7472 51.9584-62.7472 46.0176-58.016 82.9888-18.9024 101.1056 27.5824 18.3568 47.088 47.3328 118.5392-27.536 127.1728 0 0-41.96 9.984-73.9328 32.5152C165.0928 628.648 147.1504 660.8944 147.1504 660.8944zM81.6688 576.7456c-1.9424 0.0688-3.4704 2.0192-3.4128 4.352 0.0624 2.3296 1.6848 4.16 3.6288 4.0896 1.944-0.0752 3.4768-2.0208 3.4128-4.3488C85.2432 578.5008 83.6128 576.6752 81.6688 576.7456zM70.1616 622.7968c-5.0544 0.1872-9.024 5.2512-8.8704 11.312 0.1536 6.064 4.3792 10.8224 9.432 10.6368 5.056-0.1824 9.0256-5.2496 8.8704-11.3104C79.4416 627.3744 75.2176 622.6144 70.1616 622.7968zM27.4208 577.0416c-1.5568 0.0576-2.776 1.6176-2.728 3.4832 0.0496 1.8624 1.344 3.3312 2.9008 3.2688 1.5568-0.0544 2.7744-1.6112 2.7312-3.4768C30.2752 578.4496 28.9776 576.9872 27.4208 577.0416zM47.5104 535.7456c-6.224 0.2272-11.1104 6.4576-10.9232 13.9216 0.1904 7.4592 5.3904 13.3216 11.6096 13.0928 6.2224-0.2288 11.1072-6.4592 10.9168-13.9168C58.9232 541.3808 53.7296 535.5184 47.5104 535.7456zM128.736 598.6752c-5.0512 0.1872-9.0256 5.2528-8.8704 11.3104 0.1568 6.0624 4.3776 10.8272 9.4304 10.6384 5.056-0.1824 9.0304-5.248 8.8736-11.3104C138.016 603.2496 133.7936 598.4864 128.736 598.6752zM269.2064 552.9648c-0.1408-5.5984-4.0384-9.992-8.7024-9.824-4.6672 0.1696-8.336 4.8464-8.1968 10.4432 0.1456 5.5936 4.048 9.9904 8.7136 9.8176C265.6848 563.2304 269.3472 558.5552 269.2064 552.9648zM223.6112 505.6208c-1.9472 0.0704-3.472 2.016-3.416 4.352 0.0576 2.3344 1.688 4.1648 3.6272 4.096 1.944-0.0768 3.4704-2.0224 3.4096-4.352C227.1744 507.3808 225.5536 505.5504 223.6112 505.6208zM190.232 550.7888c-4.6704 0.176-8.3312 4.8464-8.192 10.4368 0.1424 5.6016 4.04 9.9968 8.7056 9.8256 4.6688-0.176 8.3328-4.8464 8.1904-10.4432C198.7968 555.0096 194.896 550.6144 190.232 550.7888zM154.328 552.1072c-1.9456 0.0672-3.4704 2.0176-3.4096 4.3504 0.0592 2.3296 1.68 4.1648 3.624 4.0928 1.9456-0.072 3.4752-2.0192 3.4144-4.3536C157.8976 553.8672 156.272 552.04 154.328 552.1072zM167.3872 484.0288c-3.8832 0.1328-6.9392 4.032-6.8224 8.696 0.1184 4.664 3.3664 8.3328 7.256 8.1856 3.888-0.1472 6.9408-4.0416 6.8208-8.704C174.5248 487.544 171.2768 483.8816 167.3872 484.0288zM226.552 427.7728c-3.888 0.1408-6.9408 4.0336-6.824 8.7008 0.1168 4.6656 3.3616 8.3312 7.2528 8.184 3.8896-0.1392 6.9472-4.0416 6.8288-8.6992C233.6928 431.2912 230.44 427.6272 226.552 427.7728zM263.5616 497.3968c-0.1424-5.5952-4.0368-9.9952-8.704-9.8224-4.6672 0.1728-8.3328 4.848-8.1888 10.4416 0.1424 5.5968 4.04 9.9936 8.7056 9.8208C260.0368 507.6656 263.7024 502.992 263.5616 497.3968zM262.2272 445.0512c1.5552-0.0512 2.7776-1.6128 2.7296-3.4752-0.048-1.8688-1.3456-3.3328-2.904-3.2752-1.5536 0.0544-2.776 1.616-2.7296 3.4768C259.3712 443.6432 260.6704 445.1152 262.2272 445.0512zM292.7136 535.2016c0.7776-0.0304 1.3856-0.8048 1.3664-1.7392-0.0224-0.9312-0.672-1.6688-1.4512-1.6352-0.7792 0.0256-1.3872 0.8016-1.368 1.7344C291.2864 534.4928 291.9344 535.2288 292.7136 535.2016z" /></svg>